<svg xmlns="http://www.w3.org/2000/svg" viewBox="0 0 128 128" fill="none">
  <defs>
    <linearGradient id="mcV" x1="64" y1="61" x2="64" y2="10" gradientUnits="userSpaceOnUse">
      <stop offset="0" stop-color="#12503B"/><stop offset="1" stop-color="#2A9A72"/>
    </linearGradient>
    <linearGradient id="mcH" x1="66" y1="64" x2="115.5" y2="64" gradientUnits="userSpaceOnUse">
      <stop offset="0" stop-color="#17604A"/><stop offset="1" stop-color="#35A17C"/>
    </linearGradient>
  </defs>
  <g fill="none" stroke="#12503B" stroke-width="3.6" stroke-linecap="round">
    <path d="M76.03 19.08 A46.5 46.5 0 0 1 108.92 51.97"/>
    <path d="M108.92 76.03 A46.5 46.5 0 0 1 76.03 108.92"/>
    <path d="M51.97 108.92 A46.5 46.5 0 0 1 19.08 76.03"/>
    <path d="M19.08 51.97 A46.5 46.5 0 0 1 51.97 19.08"/>
  </g>
  <path d="M64 10 C58.4 19.5 55.3 30 55.8 40.5 C56.2 49 59 56.2 64 61 C69 56.2 71.8 49 72.2 40.5 C72.7 30 69.6 19.5 64 10 Z" fill="url(#mcV)"/>
  <g transform="matrix(1 0 0 -1 0 128)"><path d="M64 10 C58.4 19.5 55.3 30 55.8 40.5 C56.2 49 59 56.2 64 61 C69 56.2 71.8 49 72.2 40.5 C72.7 30 69.6 19.5 64 10 Z" fill="url(#mcV)"/></g>
  <path d="M115.5 64 C106 58.8 96 55.9 86.5 56.4 C78 56.8 71 59.6 66 64 C71 68.4 78 71.2 86.5 71.6 C96 72.1 106 69.2 115.5 64 Z" fill="url(#mcH)"/>
  <g transform="matrix(-1 0 0 1 128 0)"><path d="M115.5 64 C106 58.8 96 55.9 86.5 56.4 C78 56.8 71 59.6 66 64 C71 68.4 78 71.2 86.5 71.6 C96 72.1 106 69.2 115.5 64 Z" fill="url(#mcH)"/></g>
  <path d="M64 57.2 Q65.63 62.37 70.8 64 Q65.63 65.63 64 70.8 Q62.37 65.63 57.2 64 Q62.37 62.37 64 57.2 Z" fill="#12503B"/>
</svg>
