<svg xmlns="http://www.w3.org/2000/svg" width="1600" height="420" viewBox="0 0 1600 420" fill="none" role="img" aria-label="Mint and Co logo lockup">
  <rect width="1600" height="420" fill="#FAFAF7"/>
  <defs>
    <linearGradient id="lkV" x1="64" y1="61" x2="64" y2="10" gradientUnits="userSpaceOnUse">
      <stop offset="0" stop-color="#12503B"/><stop offset="1" stop-color="#2A9A72"/>
    </linearGradient>
    <linearGradient id="lkH" x1="66" y1="64" x2="115.5" y2="64" gradientUnits="userSpaceOnUse">
      <stop offset="0" stop-color="#17604A"/><stop offset="1" stop-color="#35A17C"/>
    </linearGradient>
    <linearGradient id="lkAmp" x1="0" y1="100" x2="0" y2="290" gradientUnits="userSpaceOnUse">
      <stop offset="0" stop-color="#2A9A72"/><stop offset="1" stop-color="#176B4F"/>
    </linearGradient>
  </defs>

  <g transform="translate(96 82) scale(2)">
    <g fill="none" stroke="#12503B" stroke-width="3.6" stroke-linecap="round">
      <path d="M76.03 19.08 A46.5 46.5 0 0 1 108.92 51.97"/>
      <path d="M108.92 76.03 A46.5 46.5 0 0 1 76.03 108.92"/>
      <path d="M51.97 108.92 A46.5 46.5 0 0 1 19.08 76.03"/>
      <path d="M19.08 51.97 A46.5 46.5 0 0 1 51.97 19.08"/>
    </g>
    <path d="M64 10 C58.4 19.5 55.3 30 55.8 40.5 C56.2 49 59 56.2 64 61 C69 56.2 71.8 49 72.2 40.5 C72.7 30 69.6 19.5 64 10 Z" fill="url(#lkV)"/>
    <g transform="matrix(1 0 0 -1 0 128)"><path d="M64 10 C58.4 19.5 55.3 30 55.8 40.5 C56.2 49 59 56.2 64 61 C69 56.2 71.8 49 72.2 40.5 C72.7 30 69.6 19.5 64 10 Z" fill="url(#lkV)"/></g>
    <path d="M115.5 64 C106 58.8 96 55.9 86.5 56.4 C78 56.8 71 59.6 66 64 C71 68.4 78 71.2 86.5 71.6 C96 72.1 106 69.2 115.5 64 Z" fill="url(#lkH)"/>
    <g transform="matrix(-1 0 0 1 128 0)"><path d="M115.5 64 C106 58.8 96 55.9 86.5 56.4 C78 56.8 71 59.6 66 64 C71 68.4 78 71.2 86.5 71.6 C96 72.1 106 69.2 115.5 64 Z" fill="url(#lkH)"/></g>
    <path d="M64 57.2 Q65.63 62.37 70.8 64 Q65.63 65.63 64 70.8 Q62.37 65.63 57.2 64 Q62.37 62.37 64 57.2 Z" fill="#12503B"/>
  </g>

  <text x="420" y="262" font-family="Fraunces, Georgia, 'Times New Roman', serif" font-weight="400" font-size="148" letter-spacing="-1.5" fill="#0F2D23">Mint</text>
  <text x="758" y="262" font-family="Fraunces, Georgia, 'Times New Roman', serif" font-weight="400" font-style="italic" font-size="148" fill="url(#lkAmp)">&amp;</text>
  <text x="884" y="262" font-family="Fraunces, Georgia, 'Times New Roman', serif" font-weight="400" font-size="148" letter-spacing="-1.5" fill="#0F2D23">Co</text>
</svg>
