<svg xmlns="http://www.w3.org/2000/svg" width="128" height="128" viewBox="0 0 128 128">
  <rect width="128" height="128" rx="28" fill="#0F3D2D"/>
  <g fill="none" stroke="#79C7A4" stroke-width="4.8" stroke-linecap="round">
    <path d="M79.79 20.65 A46 46 0 0 1 107.35 48.21"/>
    <path d="M107.35 79.79 A46 46 0 0 1 79.79 107.35"/>
    <path d="M48.21 107.35 A46 46 0 0 1 20.65 79.79"/>
    <path d="M20.65 48.21 A46 46 0 0 1 48.21 20.65"/>
  </g>
  <path d="M64 6 C73 15.5 77 27 76 39 C75.3 48.5 70.5 55.5 64 59 Z" fill="#8AD4B3"/>
  <path d="M64 6 C55 15.5 51 27 52 39 C52.7 48.5 57.5 55.5 64 59 Z" fill="#3F8A68"/>
  <g transform="matrix(1 0 0 -1 0 128)">
    <path d="M64 6 C73 15.5 77 27 76 39 C75.3 48.5 70.5 55.5 64 59 Z" fill="#8AD4B3"/>
    <path d="M64 6 C55 15.5 51 27 52 39 C52.7 48.5 57.5 55.5 64 59 Z" fill="#3F8A68"/>
  </g>
  <path d="M114 64 C104.5 57 93 53.5 81 54.5 C72 55.3 66.5 59.5 69 64 Z" fill="#8AD4B3"/>
  <path d="M114 64 C104.5 71 93 74.5 81 73.5 C72 72.7 66.5 68.5 69 64 Z" fill="#3F8A68"/>
  <g transform="matrix(-1 0 0 1 128 0)">
    <path d="M114 64 C104.5 57 93 53.5 81 54.5 C72 55.3 66.5 59.5 69 64 Z" fill="#8AD4B3"/>
    <path d="M114 64 C104.5 71 93 74.5 81 73.5 C72 72.7 66.5 68.5 69 64 Z" fill="#3F8A68"/>
  </g>
  <path d="M64 58.75 Q65.25 62.75 69.25 64 Q65.25 65.25 64 69.25 Q62.75 65.25 58.75 64 Q62.75 62.75 64 58.75 Z" fill="#F2FBF7"/>
</svg>
