<svg xmlns="http://www.w3.org/2000/svg" width="128" height="128" viewBox="0 0 128 128">
  <rect width="128" height="128" rx="28" fill="#0F3D2D"/>
  <g fill="none" stroke="#79C7A4" stroke-width="4.4" stroke-linecap="round">
    <path d="M76.03 19.08 A46.5 46.5 0 0 1 108.92 51.97"/>
    <path d="M108.92 76.03 A46.5 46.5 0 0 1 76.03 108.92"/>
    <path d="M51.97 108.92 A46.5 46.5 0 0 1 19.08 76.03"/>
    <path d="M19.08 51.97 A46.5 46.5 0 0 1 51.97 19.08"/>
  </g>
  <path d="M64 10 C58.4 19.5 55.3 30 55.8 40.5 C56.2 49 59 56.2 64 61 C69 56.2 71.8 49 72.2 40.5 C72.7 30 69.6 19.5 64 10 Z" fill="#BCEBD6"/>
  <g transform="matrix(1 0 0 -1 0 128)"><path d="M64 10 C58.4 19.5 55.3 30 55.8 40.5 C56.2 49 59 56.2 64 61 C69 56.2 71.8 49 72.2 40.5 C72.7 30 69.6 19.5 64 10 Z" fill="#BCEBD6"/></g>
  <path d="M115.5 64 C106 58.8 96 55.9 86.5 56.4 C78 56.8 71 59.6 66 64 C71 68.4 78 71.2 86.5 71.6 C96 72.1 106 69.2 115.5 64 Z" fill="#8AD4B3"/>
  <g transform="matrix(-1 0 0 1 128 0)"><path d="M115.5 64 C106 58.8 96 55.9 86.5 56.4 C78 56.8 71 59.6 66 64 C71 68.4 78 71.2 86.5 71.6 C96 72.1 106 69.2 115.5 64 Z" fill="#8AD4B3"/></g>
  <path d="M64 57.2 Q65.63 62.37 70.8 64 Q65.63 65.63 64 70.8 Q62.37 65.63 57.2 64 Q62.37 62.37 64 57.2 Z" fill="#F2FBF7"/>
</svg>
